<svg width="408" height="228" viewBox="0 0 408 228" fill="none" xmlns="http://www.w3.org/2000/svg">
<path d="M0 0.912964H65.826C81.558 0.912964 95.427 3.94896 107.433 10.021C119.577 15.955 128.961 24.373 135.585 35.275C142.347 46.177 145.728 58.873 145.728 73.363C145.728 87.853 142.347 100.549 135.585 111.451C128.961 122.353 119.577 130.84 107.433 136.912C95.427 142.846 81.558 145.813 65.826 145.813H0V0.912964ZM64.17 118.282C78.66 118.282 90.183 114.28 98.739 106.276C107.433 98.134 111.78 87.163 111.78 73.363C111.78 59.563 107.433 48.661 98.739 40.657C90.183 32.515 78.66 28.444 64.17 28.444H33.534V118.282H64.17Z" fill="white"/>
<path d="M224.838 121.594C230.634 121.594 235.74 120.766 240.156 119.11C244.71 117.316 248.919 114.556 252.783 110.83L269.964 129.46C259.476 141.466 244.158 147.469 224.01 147.469C211.452 147.469 200.343 145.054 190.683 140.224C181.023 135.256 173.571 128.425 168.327 119.731C163.083 111.037 160.461 101.17 160.461 90.13C160.461 79.228 163.014 69.43 168.12 60.736C173.364 51.904 180.471 45.073 189.441 40.243C198.549 35.275 208.761 32.791 220.077 32.791C230.703 32.791 240.363 35.068 249.057 39.622C257.751 44.038 264.651 50.524 269.757 59.08C275.001 67.498 277.623 77.503 277.623 89.095L195.237 105.034C197.583 110.554 201.24 114.694 206.208 117.454C211.314 120.214 217.524 121.594 224.838 121.594ZM220.077 57.217C211.935 57.217 205.311 59.839 200.205 65.083C195.099 70.327 192.408 77.572 192.132 86.818L246.366 76.261C244.848 70.465 241.743 65.842 237.051 62.392C232.359 58.942 226.701 57.217 220.077 57.217Z" fill="white"/>
<path d="M407.845 34.447L360.856 145.813H327.529L280.747 34.447H314.074L344.917 110.209L376.795 34.447H407.845Z" fill="white"/>
<path d="M408 187.469H0V227.469H408V187.469Z" fill="url(#paint0_linear)"/>
<defs>
<linearGradient id="paint0_linear" x1="0.001632" y1="208.931" x2="405.985" y2="208.931" gradientUnits="userSpaceOnUse">
<stop stop-color="#00EBFF"/>
<stop offset="0.35" stop-color="#F200DF"/>
<stop offset="1" stop-color="#FF4700"/>
</linearGradient>
</defs>
</svg>
