<?xml version="1.0" standalone="no"?>
<!DOCTYPE svg PUBLIC "-//W3C//DTD SVG 20010904//EN"
 "http://www.w3.org/TR/2001/REC-SVG-20010904/DTD/svg10.dtd">
<svg version="1.0" xmlns="http://www.w3.org/2000/svg"
 width="1260.000000pt" height="1260.000000pt" viewBox="0 0 1260.000000 1260.000000"
 preserveAspectRatio="xMidYMid meet">
<metadata>
Created by potrace 1.11, written by Peter Selinger 2001-2013
</metadata>
<g transform="translate(0.000000,1260.000000) scale(0.100000,-0.100000)"
fill="#000000" stroke="none">
<path d="M0 6300 l0 -6300 6300 0 6300 0 0 6300 0 6300 -6300 0 -6300 0 0
-6300z m3359 2617 c580 -93 1005 -341 1273 -741 187 -279 278 -598 278 -971 0
-840 -495 -1463 -1324 -1666 -265 -64 -260 -64 -1256 -64 l-905 0 -3 1733 -2
1733 917 -4 c799 -3 931 -6 1022 -20z m3601 -763 c204 -34 437 -131 593 -247
161 -119 275 -256 367 -442 85 -170 129 -345 144 -562 4 -62 2 -73 -12 -77 -9
-3 -451 -89 -982 -191 -531 -103 -967 -188 -969 -190 -6 -6 51 -102 88 -148
76 -93 212 -177 345 -211 161 -42 396 -40 556 5 99 27 231 96 314 165 37 31
69 54 70 52 1 -1 85 -93 186 -203 101 -110 193 -210 204 -223 l20 -22 -35 -36
c-54 -56 -173 -149 -248 -194 -313 -186 -780 -247 -1216 -159 -142 29 -261 70
-400 139 -474 235 -744 703 -722 1250 13 311 104 566 283 796 172 221 439 393
724 468 84 21 164 35 290 50 67 8 306 -4 400 -20z m2340 -910 c200 -492 367
-897 371 -899 3 -3 177 400 385 895 l378 900 374 0 c205 0 371 -3 369 -7 -2
-5 -255 -605 -563 -1335 l-559 -1328 -400 0 -400 0 -557 1328 c-307 730 -558
1331 -558 1335 0 4 179 7 398 7 l397 0 365 -896z m-6180 -3184 l0 -400 -850 0
-850 0 0 400 0 400 850 0 850 0 0 -400z"/>
<path d="M2230 7205 l0 -1077 453 5 c493 5 546 10 719 67 278 93 480 268 594
516 120 260 132 636 28 912 -125 334 -401 551 -797 628 -65 13 -178 17 -539
21 l-458 5 0 -1077z"/>
<path d="M6545 7576 c-139 -27 -243 -84 -336 -182 -67 -71 -109 -144 -142
-244 -24 -73 -53 -247 -43 -257 10 -10 1278 242 1283 254 3 7 -14 52 -37 100
-75 155 -217 271 -390 319 -79 21 -250 26 -335 10z"/>
</g>
</svg>
